<?xml version="1.0" standalone="no"?>
<!DOCTYPE svg PUBLIC "-//W3C//DTD SVG 20010904//EN"
 "http://www.w3.org/TR/2001/REC-SVG-20010904/DTD/svg10.dtd">
<svg version="1.0" xmlns="http://www.w3.org/2000/svg"
 width="400.000000pt" height="400.000000pt" viewBox="0 0 400.000000 400.000000"
 preserveAspectRatio="xMidYMid meet">
<metadata>
Created by potrace 1.14, written by Peter Selinger 2001-2017
</metadata>
<g transform="translate(0.000000,400.000000) scale(0.100000,-0.100000)"
fill="#000000" stroke="none">
<path d="M1675 3831 c-27 -5 -75 -16 -105 -24 -30 -9 -80 -19 -110 -22 -30 -4
-71 -15 -90 -24 -19 -10 -51 -21 -70 -25 -40 -7 -192 -82 -260 -126 -25 -17
-64 -39 -87 -49 -22 -11 -45 -26 -50 -33 -4 -7 -20 -21 -35 -31 -15 -9 -78
-67 -140 -129 -110 -110 -168 -179 -188 -225 -5 -13 -14 -23 -19 -23 -5 0 -13
-9 -16 -20 -4 -11 -18 -34 -32 -50 -27 -32 -56 -83 -93 -160 -12 -25 -27 -52
-34 -60 -8 -8 -19 -33 -26 -54 -7 -22 -21 -53 -30 -70 -10 -17 -23 -56 -29
-86 -7 -30 -19 -62 -27 -71 -8 -9 -20 -50 -25 -91 -6 -40 -18 -100 -28 -133
-25 -81 -37 -247 -21 -286 10 -24 18 -29 45 -29 48 0 63 24 70 115 4 44 13
101 20 126 7 26 16 73 20 105 8 67 56 225 91 299 13 28 24 57 24 66 0 9 10 31
23 50 12 19 29 48 36 66 7 17 21 39 32 49 10 9 19 22 19 27 0 6 12 26 28 45
15 20 32 44 37 53 26 46 160 188 256 271 56 50 153 118 166 118 5 0 33 13 63
29 30 16 66 32 80 36 14 4 33 14 42 22 9 8 62 23 118 32 55 10 103 20 106 23
3 4 -35 12 -84 18 -50 7 -96 16 -103 21 -20 12 5 36 46 43 19 4 47 17 62 30
18 15 53 27 98 35 39 7 88 20 110 31 58 26 326 44 530 35 187 -8 260 -18 281
-40 8 -8 34 -16 57 -16 23 -1 59 -2 79 -3 61 -2 47 18 -19 30 -34 6 -74 19
-89 29 -15 10 -74 26 -130 36 -56 9 -113 23 -126 30 -27 15 -395 22 -473 10z"/>
<path d="M2615 3661 c-21 -9 -16 -11 57 -26 16 -3 35 11 27 19 -11 10 -67 14
-84 7z"/>
<path d="M2201 3601 c-12 -8 -9 -11 12 -16 15 -4 35 -4 44 -1 15 6 15 8 3 16
-19 12 -41 12 -59 1z"/>
<path d="M2735 3600 c-4 -6 6 -10 22 -10 22 0 25 2 13 10 -19 12 -27 12 -35 0z"/>
<path d="M1523 3593 c20 -2 54 -2 75 0 20 2 3 4 -38 4 -41 0 -58 -2 -37 -4z"/>
<path d="M2308 3553 c-10 -2 -18 -6 -18 -8 0 -2 17 -19 38 -38 37 -35 98 -96
148 -149 15 -16 28 -44 31 -68 5 -34 3 -40 -13 -40 -11 0 -32 -7 -48 -15 -20
-11 -60 -15 -133 -15 -101 0 -131 7 -161 37 -18 18 -92 18 -92 -1 0 -8 11 -17
25 -20 13 -3 36 -17 50 -30 49 -46 238 -57 426 -26 l76 13 -3 35 c-1 22 -11
43 -26 57 -13 12 -37 48 -53 79 -16 32 -39 63 -51 69 -13 7 -47 35 -77 64 -52
51 -85 66 -119 56z"/>
<path d="M1852 3541 c-10 -6 -8 -9 10 -12 32 -6 68 0 68 12 0 11 -60 12 -78 0z"/>
<path d="M2845 3540 c3 -5 13 -10 21 -10 8 0 14 5 14 10 0 6 -9 10 -21 10 -11
0 -17 -4 -14 -10z"/>
<path d="M2740 2679 c0 -5 5 -7 10 -4 6 3 10 8 10 11 0 2 -4 4 -10 4 -5 0 -10
-5 -10 -11z"/>
<path d="M2258 2633 c-29 -8 -39 -56 -42 -208 -4 -163 0 -205 19 -205 22 0 57
113 59 193 2 41 6 51 28 65 25 15 28 14 62 -9 29 -19 36 -31 36 -56 0 -17 -4
-35 -10 -38 -5 -3 -10 -28 -10 -56 l0 -49 34 0 c32 0 35 2 41 40 4 22 4 78 0
124 -8 94 -10 96 -91 96 -49 0 -71 20 -76 70 -3 35 -15 43 -50 33z"/>
<path d="M2988 2623 c12 -2 30 -2 40 0 9 3 -1 5 -23 4 -22 0 -30 -2 -17 -4z"/>
<path d="M1821 2576 c-5 -6 -9 -92 -10 -191 -1 -204 4 -220 58 -209 17 4 36
16 42 26 9 16 6 25 -16 48 -26 27 -27 32 -20 97 4 37 13 89 22 114 21 66 8
111 -35 120 -19 4 -35 2 -41 -5z"/>
<path d="M2053 2583 c-7 -2 -13 -12 -13 -20 0 -9 -12 -36 -26 -61 -26 -44 -26
-44 -9 -83 17 -36 17 -43 3 -86 -9 -27 -12 -55 -8 -63 18 -34 61 -72 76 -66 9
3 27 6 40 6 15 0 24 6 24 15 0 8 -4 15 -8 15 -5 0 -18 9 -30 20 -31 29 -31
117 0 171 19 34 20 43 10 78 -14 46 -42 81 -59 74z"/>
<path d="M2733 2572 c-6 -4 -14 -19 -18 -34 -4 -15 -13 -29 -21 -32 -11 -4
-14 -29 -14 -105 0 -102 9 -128 32 -91 7 11 18 20 24 20 19 0 34 233 16 244
-4 2 -13 2 -19 -2z"/>
<path d="M2861 2561 c-7 -5 -11 -22 -9 -42 3 -31 5 -34 33 -31 36 4 48 14 40
33 -9 23 -50 48 -64 40z"/>
<path d="M1004 2465 c-28 -12 -32 -18 -38 -71 -8 -71 -29 -100 -78 -108 -35
-6 -37 -5 -48 29 -7 20 -10 46 -7 57 6 20 -17 78 -29 78 -18 0 -66 -38 -70
-55 -3 -11 -9 -92 -13 -180 -7 -130 -6 -164 6 -182 32 -53 86 -6 97 82 8 72
18 85 65 85 51 0 61 -14 61 -85 0 -68 10 -84 46 -77 49 9 62 63 68 277 2 61 5
116 7 123 2 8 -5 20 -16 27 -17 11 -25 11 -51 0z"/>
<path d="M2965 2460 c-9 -14 13 -50 30 -50 8 0 15 -4 15 -10 0 -5 6 -10 14
-10 14 0 30 55 20 71 -7 12 -71 11 -79 -1z"/>
<path d="M1590 2452 c0 -5 -23 -19 -51 -31 -61 -28 -53 -46 21 -46 33 0 55 -6
66 -17 17 -16 17 -18 -1 -38 -13 -15 -31 -20 -67 -20 -61 0 -83 -11 -96 -49
-9 -27 -2 -94 12 -108 11 -12 73 -18 106 -11 19 4 57 11 85 15 65 11 75 30 75
155 l0 98 -47 30 c-45 28 -103 40 -103 22z m31 -202 c23 -13 25 -33 4 -50 -17
-14 -50 -8 -80 14 -19 14 -19 15 15 30 43 19 37 18 61 6z"/>
<path d="M1193 2370 c-71 -46 -78 -63 -71 -180 5 -91 14 -100 111 -107 61 -5
81 -3 102 11 22 14 23 19 12 36 -10 17 -19 19 -52 15 -27 -4 -46 -2 -60 8 -19
15 -19 16 -2 35 10 11 32 22 48 26 34 6 30 26 -4 26 -30 0 -51 34 -37 60 6 11
17 20 25 20 20 0 47 -44 39 -64 -5 -13 1 -16 38 -16 24 0 49 5 56 12 29 29 5
104 -44 136 -51 32 -89 28 -161 -18z"/>
<path d="M2913 2353 c-35 -2 -63 -8 -63 -14 0 -15 132 -7 138 9 2 6 0 11 -5
10 -4 -1 -36 -3 -70 -5z"/>
<path d="M2892 2229 c-12 -5 -26 -19 -31 -31 -4 -13 -11 -115 -14 -228 -3
-113 -10 -217 -16 -232 -9 -23 -7 -29 7 -37 27 -14 47 4 48 44 1 19 9 44 18
54 11 12 16 36 16 78 0 62 11 108 36 156 8 15 11 27 6 27 -17 0 -34 57 -31
109 3 58 -6 73 -39 60z"/>
<path d="M2365 2153 c-35 -7 -46 -38 -47 -141 -1 -69 -6 -109 -19 -139 -25
-58 -25 -183 0 -214 22 -27 115 -39 143 -17 17 12 16 15 -12 45 -51 54 -62
110 -36 174 14 37 29 240 19 277 -5 22 -9 23 -48 15z"/>
<path d="M2611 2124 c-38 -19 -52 -87 -51 -244 1 -74 3 -145 7 -157 12 -53
117 -81 134 -37 6 17 1 26 -22 43 -27 20 -29 25 -29 95 0 109 7 132 46 156
l35 20 -26 37 c-14 21 -30 50 -36 65 -13 33 -27 38 -58 22z"/>
<path d="M3533 2128 c-6 -7 -16 -65 -23 -128 -7 -63 -16 -123 -21 -132 -5 -10
-14 -54 -20 -99 -7 -49 -21 -101 -35 -127 -13 -25 -24 -57 -24 -72 0 -14 -11
-48 -24 -76 -13 -27 -29 -65 -36 -84 -8 -19 -22 -46 -32 -59 -10 -13 -18 -29
-18 -37 0 -7 -11 -25 -24 -41 -13 -15 -31 -41 -40 -58 -9 -16 -29 -46 -44 -66
-15 -20 -46 -61 -70 -92 -51 -67 -147 -164 -182 -182 -14 -7 -43 -29 -64 -48
-21 -20 -59 -46 -85 -59 -25 -12 -48 -26 -49 -31 -6 -12 -59 -37 -80 -37 -10
0 -33 -11 -51 -24 -20 -15 -53 -26 -88 -31 -69 -8 -83 -14 -83 -30 0 -18 -44
-24 -219 -30 -86 -3 -167 -8 -181 -11 -58 -14 21 -23 205 -23 179 -1 192 0
208 19 19 23 61 26 95 6 23 -12 22 -13 -25 -28 -26 -9 -47 -21 -46 -27 4 -15
-46 -39 -109 -52 -29 -6 -69 -19 -88 -29 -21 -10 -83 -22 -153 -29 -64 -7
-132 -17 -150 -22 -52 -15 -329 -11 -368 5 -19 7 -89 16 -156 20 -101 5 -123
3 -123 -8 0 -18 22 -26 67 -26 40 0 115 -20 124 -33 29 -41 679 -45 741 -5 13
8 53 20 90 27 38 6 101 25 142 41 41 17 79 30 84 30 5 0 15 7 22 15 7 8 31 20
54 26 22 6 49 18 59 27 11 9 38 28 62 42 56 33 131 88 170 125 17 17 46 41 64
55 38 29 182 188 218 240 49 72 73 106 88 125 24 30 62 94 85 145 12 25 27 52
34 60 8 8 19 33 26 55 7 22 24 60 37 84 12 24 23 51 23 60 0 9 10 34 21 56 12
22 28 75 35 119 8 43 21 102 30 130 8 28 18 109 21 180 6 118 5 130 -12 142
-24 17 -69 18 -82 2z"/>
<path d="M3008 2081 c-27 -27 -22 -36 25 -47 l42 -9 5 -145 c3 -80 7 -144 10
-143 3 1 17 4 31 8 l26 6 6 134 c3 74 3 143 0 154 -7 26 -66 61 -101 60 -15 0
-35 -8 -44 -18z"/>
<path d="M1318 2008 c-9 -7 -19 -33 -22 -57 -4 -25 -15 -61 -26 -80 -10 -20
-28 -58 -40 -86 l-21 -50 -14 25 c-7 14 -17 48 -20 75 -9 64 -38 130 -63 144
-37 20 -79 -4 -98 -57 -9 -26 -27 -70 -40 -97 -13 -28 -24 -56 -24 -62 0 -18
-22 -63 -30 -63 -12 0 -28 50 -40 123 -17 108 -37 136 -107 151 -34 8 -32 12
-48 -68 -5 -26 13 -125 31 -163 8 -17 18 -69 23 -115 4 -45 16 -100 25 -122 9
-21 16 -46 16 -56 0 -26 33 -50 68 -50 35 0 59 20 69 58 3 15 12 36 20 48 7
11 20 43 28 71 12 39 21 52 39 57 13 3 31 8 39 12 15 5 26 -28 42 -131 9 -51
21 -65 57 -65 44 0 87 26 94 58 18 81 28 109 45 130 10 14 19 36 19 51 0 39
23 105 43 125 9 10 17 32 17 49 0 43 15 94 34 112 8 9 13 22 10 30 -8 19 -103
21 -126 3z"/>
<path d="M1970 1961 c-51 -10 -57 -16 -52 -51 5 -37 26 -48 56 -30 62 39 116
26 116 -26 0 -54 -15 -64 -90 -64 -67 0 -72 -2 -111 -37 -41 -37 -41 -38 -37
-95 6 -75 23 -93 86 -92 117 3 232 17 243 30 13 16 23 237 14 302 -6 38 -11
46 -40 58 -36 14 -124 17 -185 5z m113 -232 c28 -44 -44 -115 -91 -90 -25 13
-31 71 -9 89 28 23 85 24 100 1z"/>
<path d="M1566 1911 c-39 -8 -71 -37 -135 -121 -21 -28 -23 -38 -19 -116 5
-95 21 -126 79 -157 27 -15 48 -17 104 -13 102 8 130 20 143 62 9 29 8 36 -7
43 -19 11 -87 -1 -104 -18 -6 -6 -17 -11 -24 -11 -15 0 -73 55 -73 69 0 19 37
30 121 37 46 4 91 8 99 10 8 1 23 3 33 3 14 1 17 11 17 57 0 66 -28 125 -69
144 -34 16 -116 21 -165 11z m87 -75 c33 -8 37 -46 7 -76 -30 -30 -120 -26
-120 6 0 8 4 14 9 14 5 0 19 15 32 34 12 19 28 32 33 31 6 -2 23 -6 39 -9z"/>
<path d="M1298 980 c-64 -6 -78 -12 -125 -53 -18 -16 -20 -24 -12 -46 5 -14
15 -30 22 -36 7 -5 25 -30 42 -55 16 -25 50 -63 74 -85 25 -22 55 -50 69 -63
13 -13 40 -32 60 -42 19 -11 38 -24 42 -30 9 -15 77 -23 85 -10 4 6 -7 15 -24
21 -16 6 -36 21 -45 33 -8 13 -31 31 -50 40 -20 9 -36 22 -36 29 0 7 -13 26
-28 42 -15 17 -47 51 -71 78 l-44 48 23 24 c42 44 197 56 326 24 51 -12 110
-6 99 11 -3 5 -23 14 -45 20 -21 6 -46 17 -55 26 -33 33 -138 42 -307 24z"/>
<path d="M1824 622 c5 -8 66 -4 66 4 0 2 -16 4 -36 4 -19 0 -33 -4 -30 -8z"/>
<path d="M960 571 c0 -13 21 -19 43 -13 15 4 16 7 5 13 -17 12 -48 11 -48 0z"/>
<path d="M1070 520 c-21 -13 -7 -22 45 -27 37 -5 45 -3 45 11 0 10 -8 16 -24
16 -13 0 -30 2 -38 5 -7 3 -20 1 -28 -5z"/>
<path d="M1187 472 c-10 -2 -16 -9 -14 -15 4 -14 137 -22 137 -9 0 10 -97 29
-123 24z"/>
</g>
</svg>
